<svg xmlns="http://www.w3.org/2000/svg" width="64" height="64" viewBox="0 0 64 64">
  <defs>
    <linearGradient id="parentGradient" x1="0%" y1="0%" x2="100%" y2="100%">
      <stop offset="0%" style="stop-color:#ffecd2;stop-opacity:1" />
      <stop offset="100%" style="stop-color:#fcb69f;stop-opacity:1" />
    </linearGradient>
  </defs>
  
  <!-- 背景圆形 -->
  <circle cx="32" cy="32" r="32" fill="url(#parentGradient)"/>
  
  <!-- 家长图标 -->
  <g transform="translate(12, 12)">
    <!-- 大人头部 -->
    <circle cx="14" cy="10" r="6" fill="white" opacity="0.9"/>
    
    <!-- 大人身体 -->
    <path d="M8 20 C8 17, 11 15, 14 15 C17 15, 20 17, 20 20 L20 28 L8 28 Z" fill="white" opacity="0.9"/>
    
    <!-- 小孩头部 -->
    <circle cx="26" cy="14" r="4" fill="white" opacity="0.9"/>
    
    <!-- 小孩身体 -->
    <path d="M22 22 C22 20, 24 19, 26 19 C28 19, 30 20, 30 22 L30 28 L22 28 Z" fill="white" opacity="0.9"/>
    
    <!-- 爱心连接 -->
    <path d="M18 12 C18 10, 20 10, 20 12 C20 10, 22 10, 22 12 C22 14, 20 16, 20 16 C20 16, 18 14, 18 12 Z" fill="#ff6b6b" opacity="0.8"/>
    
    <!-- 手牵手 -->
    <line x1="17" y1="18" x2="23" y2="20" stroke="#ffd700" stroke-width="2" opacity="0.8"/>
    
    <!-- 家庭标识 -->
    <path d="M6 32 L14 24 L22 32 L34 32 L26 24 L34 32 L36 32 L36 40 L4 40 L4 32 Z" fill="#4ecdc4" opacity="0.6"/>
    <rect x="12" y="34" width="4" height="6" fill="#333" opacity="0.3"/>
  </g>
  
  <!-- 家长标识 -->
  <text x="32" y="52" text-anchor="middle" fill="white" font-family="Arial, sans-serif" font-size="7" font-weight="bold">PARENT</text>
</svg>
